<svg width="41" height="41" viewBox="0 0 41 41" fill="none" xmlns="http://www.w3.org/2000/svg">
<g clip-path="url(#clip0_1_1729)">
<path d="M20.38 0.790161C17.7536 0.79012 15.1528 1.30741 12.7263 2.31249C10.2998 3.31757 8.09496 4.79075 6.23778 6.64793C4.3806 8.50511 2.90741 10.7099 1.90233 13.1364C0.897252 15.563 0.379964 18.1637 0.380005 20.7902C0.380005 29.6302 6.12 37.1302 14.06 39.7902C15.06 39.9502 15.38 39.3302 15.38 38.7902V35.4102C9.84 36.6102 8.66 32.7302 8.66 32.7302C7.74 30.4102 6.44001 29.7902 6.44001 29.7902C4.62001 28.5502 6.58001 28.5902 6.58001 28.5902C8.58 28.7302 9.64001 30.6502 9.64001 30.6502C11.38 33.6902 14.32 32.7902 15.46 32.3102C15.64 31.0102 16.16 30.1302 16.72 29.6302C12.28 29.1302 7.62001 27.4102 7.62001 19.7902C7.62001 17.5702 8.38 15.7902 9.68001 14.3702C9.48001 13.8702 8.78001 11.7902 9.88 9.09016C9.88 9.09016 11.56 8.55016 15.38 11.1302C16.96 10.6902 18.68 10.4702 20.38 10.4702C22.08 10.4702 23.8 10.6902 25.38 11.1302C29.2 8.55016 30.88 9.09016 30.88 9.09016C31.98 11.7902 31.28 13.8702 31.08 14.3702C32.38 15.7902 33.14 17.5702 33.14 19.7902C33.14 27.4302 28.46 29.1102 24 29.6102C24.72 30.2302 25.38 31.4502 25.38 33.3102V38.7902C25.38 39.3302 25.7 39.9702 26.72 39.7902C34.66 37.1102 40.38 29.6302 40.38 20.7902C40.38 18.1637 39.8628 15.563 38.8577 13.1365C37.8526 10.7099 36.3794 8.50515 34.5222 6.64799C30.7714 2.89734 25.6843 0.790228 20.38 0.790161Z" fill="black"/>
</g>
<defs>
<clipPath id="clip0_1_1729">
<rect width="40" height="39.0698" fill="white" transform="translate(0.380005 0.790161)"/>
</clipPath>
</defs>
</svg>
