<svg width="1920" height="595" viewBox="0 0 1920 595" fill="none" xmlns="http://www.w3.org/2000/svg">
<rect x="0.000244141" y="0.000244141" width="1920" height="595" fill="url(#paint0_linear_207_284)"/>
<path fill-rule="evenodd" clip-rule="evenodd" d="M0 0H268.677C300.998 15.5153 331.414 35.8442 359.351 60.2874C315.647 285.716 178.087 466.686 0 539.28V0ZM0 542.539C179.261 470.014 317.611 288.495 361.951 62.5803C469.024 157.771 539 313.753 539 490.5L539 490.711C479.821 531.101 400.706 572.231 262.258 595H0V542.539ZM362.617 59.1433C470.789 154.562 541.51 311.321 541.997 488.654C558.131 477.525 572.8 466.478 586.83 455.912C643.986 412.867 690.536 377.809 782.316 377.809C906.137 377.809 980.875 389.761 1052.89 401.278C1119.84 411.985 1184.43 422.315 1283.92 422.315C1395.84 422.315 1456.14 365.338 1514.95 309.764C1570.94 256.858 1625.59 205.223 1722.14 205.223C1788.7 205.223 1920 264.07 1920 264.07V0H371.663C369.363 20.0111 366.336 39.7391 362.617 59.1433ZM275.545 0C305.546 15.0094 333.852 34.1515 360.007 56.8595C363.54 38.1956 366.43 19.2305 368.647 0H275.545Z" fill="#2E303E"/>
<defs>
<linearGradient id="paint0_linear_207_284" x1="0.000244141" y1="0.000244141" x2="1922.98" y2="9.77901" gradientUnits="userSpaceOnUse">
<stop offset="0.1563" stop-color="#4051B5"/>
<stop offset="0.9096" stop-color="#4285F4"/>
</linearGradient>
</defs>
</svg>
