<svg width="1920" height="809" viewBox="0 0 1920 809" fill="none" xmlns="http://www.w3.org/2000/svg">
<rect width="1920" height="808.041" fill="url(#paint0_linear_47_34352)"/>
<path fill-rule="evenodd" clip-rule="evenodd" d="M0 7.75215V473.787C173.286 411.744 308.06 259.572 355.527 69.1753C310.795 36.3223 259.856 12.4559 204.992 0H29.008C19.2091 2.22467 9.53546 4.81333 0 7.75215ZM217.696 0C267.993 13.0704 314.79 35.7121 356.305 66.0199C361.556 44.4721 365.691 22.4406 368.638 0H217.696ZM358.919 67.9435C364.369 45.779 368.642 23.1041 371.663 0H1920V298.102C1920 298.102 1788.7 231.671 1722.14 231.671C1625.59 231.671 1570.94 289.961 1514.95 349.684C1456.14 412.421 1395.84 476.741 1283.92 476.741C1184.43 476.741 1119.84 465.079 1052.89 452.992C980.875 439.991 906.137 426.499 782.316 426.499C690.536 426.499 643.986 466.075 586.83 514.667C568.477 530.271 549.03 546.804 526.64 563.256C536.651 524.572 542 483.816 542 441.725C542 286.818 469.552 150.009 358.919 67.9435ZM358.133 71.1044C467.431 152.671 539 288.19 539 441.725C539 484.853 533.353 526.561 522.808 566.05C433.34 630.758 296.659 693.307 0 691.979V476.98C174.395 414.95 310.07 262.227 358.133 71.1044ZM0 4.60778V0H16.304C10.8271 1.42326 5.39164 2.96 0 4.60778Z" fill="#2E303E"/>
<defs>
<linearGradient id="paint0_linear_47_34352" x1="0" y1="0" x2="1923" y2="7.20066" gradientUnits="userSpaceOnUse">
<stop offset="0.1563" stop-color="#4051B5"/>
<stop offset="0.9096" stop-color="#4285F4"/>
</linearGradient>
</defs>
</svg>
