<svg width="85" height="32" viewBox="0 0 85 32" fill="none" xmlns="http://www.w3.org/2000/svg">
<g clip-path="url(#clip0_1_1298)">
<g filter="url(#filter0_d_1_1298)">
<path d="M70.2538 15.9154C70.2098 15.905 70.1699 15.882 70.1389 15.8492C70.0499 15.6176 69.9137 15.407 69.7392 15.2307C69.5646 15.0545 69.3554 14.9163 69.1247 14.8251L69.1132 14.816C69.1038 14.3478 68.7377 14.0661 68.5289 13.7024C67.4411 11.8062 66.5164 9.88089 66.9955 7.57989C67.1431 6.87055 67.6012 6.30227 67.7422 5.60461L67.7594 5.59034C67.9245 5.55299 68.0748 5.46789 68.1918 5.34563C68.3087 5.22336 68.3871 5.06937 68.4171 4.90285C68.485 4.8447 68.5527 4.78653 68.6205 4.72832C68.9743 4.75276 69.2042 4.50355 69.4487 4.32148C70.2618 3.74318 71.1115 3.21792 71.9922 2.74899C74.1186 1.55547 76.2737 1.21529 78.6266 2.17108C79.5233 2.53537 80.3341 3.07523 81.2638 3.35047C81.3291 3.41057 81.3944 3.47066 81.4597 3.53074C81.4559 3.58707 81.462 3.64365 81.4779 3.69782C82.4918 5.62765 82.8578 7.55515 81.4753 9.48459C81.4471 9.52397 81.4627 9.59479 81.4578 9.65093C81.3952 9.71333 81.3327 9.77573 81.2703 9.83813C80.6543 10.07 80.0559 10.232 79.4113 9.86367C78.5936 9.45792 77.7293 9.15357 76.8377 8.95723C76.3229 8.81158 75.7341 8.5997 75.2476 9.10084L75.2124 9.13536C74.6714 9.67085 75.201 10.0106 75.4859 10.3145C76.818 11.7345 78.6856 12.3061 80.2997 13.282C80.4706 13.4515 80.6416 13.6211 80.8125 13.7906C81.3325 14.8863 81.9593 15.926 82.4295 17.05C83.2136 18.9243 83.5314 20.7536 82.6707 22.7325C82.2693 23.6552 81.8215 24.5728 81.5049 25.5368L81.5064 25.5344C81.4025 25.5717 81.3046 25.6243 81.2161 25.6903C79.4893 27.4492 77.3169 28.0437 74.9367 28.1181C72.4947 28.2491 70.0465 28.0279 67.6675 27.4614L67.6552 27.4485C67.739 26.8348 67.3287 26.3829 67.1396 25.8576C66.7816 24.8628 66.0036 23.9628 66.4022 22.789C66.8595 21.5011 67.4168 20.2511 68.0689 19.05C68.3532 18.5079 68.5813 18.3754 69.1798 18.717C70.7322 19.6034 72.1857 20.6922 73.9904 21.0946C75.1418 21.3512 76.0223 21.0888 76.5971 20.1664C77.0732 19.4024 76.8555 18.7591 75.9863 18.5166C75.441 18.356 74.9118 18.1455 74.4052 17.8879C73.0286 17.2154 71.6385 16.571 70.2538 15.9154ZM74.0878 25.1362C74.5787 25.1362 75.1542 25.1699 75.7247 25.1301C77.7882 24.9864 79.4699 24.1691 80.5412 22.3181C81.1412 21.2068 81.4126 19.9478 81.3236 18.688C81.2563 16.1499 80.236 14.2468 77.9049 13.1039C76.8019 12.5631 75.7215 11.9753 74.6413 11.3894C73.6875 10.9065 72.9333 10.1041 72.5104 9.12215C71.8837 7.62881 72.7015 6.08453 74.2849 5.91195C75.7412 5.75324 77.2244 5.71912 78.5962 6.33244C79.2071 6.60559 79.3791 6.38949 79.6164 5.90074C80.4696 4.14353 80.4778 4.13521 78.6554 3.46648C78.5481 3.42711 78.4492 3.36369 78.341 3.32857C76.9555 2.8793 75.5714 2.31298 74.0947 2.91783C72.5825 3.52195 71.1426 4.29316 69.8017 5.21711C69.1704 5.65427 68.6553 6.23885 68.301 6.92015C67.9467 7.60143 67.764 8.35887 67.7688 9.12675C67.7735 9.89464 67.9655 10.6497 68.328 11.3267C68.6906 12.0036 69.2128 12.5818 69.8494 13.0112C70.9844 13.8002 72.294 14.2339 73.5192 14.8385C74.8731 15.5068 76.3284 16.0011 77.2881 17.2808C78.3048 18.6367 78.2722 20.4836 77.141 21.2964C76.6822 21.6418 76.1511 21.8787 75.5876 21.9894C75.0241 22.1001 74.4429 22.0816 73.8876 21.9353C72.3144 21.5074 70.8243 20.8186 69.4793 19.8974C69.0022 19.5927 68.7478 19.5822 68.5346 20.1849C68.2517 21.0523 67.8929 21.8929 67.4626 22.6974C66.9919 23.5252 67.3978 23.8384 68.0651 24.0867C69.9695 24.8807 72.0271 25.2392 74.0878 25.1362ZM73.4633 27.4132C74.4277 27.3344 75.1979 27.287 75.9635 27.2001C76.2141 27.1717 76.5272 27.0628 76.5817 26.7992C76.6523 26.4566 76.2644 26.4627 76.0651 26.3376C75.7487 26.1986 75.3998 26.1501 75.0574 26.1975C73.6601 26.1624 72.271 26.2409 70.8742 25.9064C69.9307 25.6804 69.0236 25.3391 68.0755 25.1468C67.9102 25.1133 67.6912 24.8933 67.5799 25.219C67.4656 25.554 68.3319 26.8382 68.7252 26.8843C70.3678 27.077 72.0124 27.2526 73.4633 27.4132ZM78.0308 7.43571C77.8244 7.48382 77.5778 7.53945 77.3322 7.59921C77.1246 7.64971 76.8258 7.61305 76.8722 7.9577C76.9099 8.2369 77.1495 8.29408 77.387 8.29931C77.6955 8.32777 77.9993 8.39493 78.2911 8.49919C78.696 8.61074 79.2639 9.1951 79.5137 8.56907C79.754 7.96669 78.9979 7.82901 78.5676 7.60755C78.3934 7.53628 78.2139 7.47882 78.0308 7.43571Z" fill="#4035A7"/>
<path d="M48.9226 27.3484C48.8035 27.4735 48.6845 27.5984 48.5655 27.7235C47.6346 28.1491 46.7097 28.5888 45.7704 28.9949C45.5005 29.1324 45.2011 29.2019 44.8983 29.1975C44.5956 29.1932 44.2983 29.1151 44.0325 28.97C42.9099 28.3384 41.8619 27.5825 40.9082 26.7168C40.6963 26.5228 40.5356 26.2793 40.4408 26.0082C40.3458 25.7371 40.3194 25.4466 40.3641 25.1628C40.4775 24.0584 40.7111 22.9696 41.0607 21.9158C41.7935 19.7824 42.3643 17.6033 42.8977 15.4147C43.5448 12.7591 44.1931 10.103 44.7813 7.43402C45.0697 6.1249 45.6796 4.92595 45.9649 3.62226L45.9794 3.60659C47.3746 2.8792 48.893 2.64288 50.4249 2.3724C52.3095 2.03964 54.1662 1.3011 55.9679 2.6014C55.9836 2.61279 56.0223 2.59249 56.0503 2.587L56.0588 2.59587C56.0507 2.70745 56.0607 2.81959 56.0882 2.928C57.8655 6.91245 59.6472 10.8948 61.4336 14.8752C62.4409 17.1095 63.6902 19.2245 64.6947 21.4632C65.0458 22.2458 64.74 22.6437 64.0986 22.832C62.1661 23.3996 60.4618 24.4506 58.648 25.2681C57.7254 25.6838 56.827 26.5982 55.6462 25.8719C55.3047 25.5279 54.9631 25.1839 54.6216 24.8399C54.6483 24.576 54.4664 24.4199 54.3108 24.2553C53.6886 23.5725 53.3225 22.6952 53.2747 21.7729C53.1049 20.4725 52.8339 19.1874 52.4641 17.9292C52.3719 17.551 52.281 17.0742 51.7182 17.1883C51.2432 17.2903 50.7784 17.4349 50.3294 17.6205C50.0286 17.7411 49.772 17.9792 49.8792 18.3557C50.2349 19.6043 50.2168 20.902 50.3736 22.1743C50.5998 24.0093 51.104 25.9833 48.9775 27.1916C48.9412 27.2122 48.9401 27.2948 48.9226 27.3484ZM41.5245 25.7444C42.1116 26.3113 42.7516 26.0109 43.3307 25.7861C44.4545 25.3689 45.5332 24.839 46.55 24.2043C47.9431 23.3057 48.1222 23.7689 47.75 21.7677C47.7194 21.512 47.7117 21.254 47.727 20.9969C47.7228 19.3955 47.7198 17.794 47.7181 16.1925L47.8882 16.0225C49.0342 15.7303 49.9822 14.9936 51.0903 14.6077C52.3546 14.1673 52.4715 14.2102 52.9472 15.4823C53.641 17.3372 53.8281 19.3098 54.2781 21.2209C54.4494 21.9486 54.7538 21.94 55.3021 21.7455C55.8907 21.5367 56.4969 21.3777 57.0894 21.1789C58.2762 20.8604 59.4298 20.4292 60.5346 19.8913C61.0311 19.6116 61.239 19.3863 60.9273 18.7542C60.0301 16.9346 59.2333 15.0655 58.3991 13.2148C56.9546 10.0103 55.5038 6.80867 54.0751 3.59717C53.7939 2.96509 53.4962 2.6421 52.7148 2.90234C51.4441 3.32552 50.0891 3.42425 48.7905 3.73056C47.8253 3.95824 46.6163 3.89091 46.1787 5.17813C45.6927 6.75718 45.3144 8.36742 45.0467 9.9977C44.54 12.6021 43.8066 15.1484 43.1934 17.7249C42.6082 20.1842 41.9221 22.6196 41.2875 25.0674C41.2245 25.3106 41.1443 25.5884 41.4958 25.7113L41.5245 25.7444ZM62.7241 21.6888C62.6905 21.5334 62.6253 21.3864 62.5328 21.2571C62.4403 21.1277 62.3223 21.0186 62.1861 20.9365C62.0499 20.8545 61.8983 20.801 61.7408 20.7797C61.5831 20.7583 61.4228 20.7694 61.2696 20.8123C60.538 21.1123 59.8127 21.4281 59.0897 21.7486C57.9699 22.2447 56.7095 22.244 55.5907 22.7484C55.3194 22.8707 55.0432 22.981 55.0223 23.3087C54.9862 23.8754 56.5482 24.9564 57.0606 24.7145C58.798 23.8944 60.5304 23.0638 62.2577 22.2223C62.4789 22.1152 62.7585 22.0315 62.7241 21.6888ZM44.8678 28.0776C45.2385 28.0651 47.6739 26.8663 48.2969 26.4266C48.9657 25.9545 48.9115 25.5033 48.1818 25.1088C47.9849 25.0215 47.7681 24.9885 47.554 25.0133C47.3401 25.0381 47.1366 25.1198 46.9648 25.2498C45.9797 25.8108 44.9305 26.251 43.84 26.5608C43.5501 26.6318 43.318 26.8372 43.4976 27.1083C43.8232 27.5853 44.3096 27.9294 44.8678 28.0776Z" fill="#4035A7"/>
<path d="M4.23761 26.3543C4.17652 26.2929 4.11544 26.2315 4.05436 26.1703C3.64233 25.0501 2.84787 24.1338 2.43429 23.0014C1.61211 20.7503 0.877673 18.5244 0.875009 16.0598C0.87273 13.948 1.30366 11.9256 1.67292 9.88874C1.83621 8.98806 1.95961 8.00188 2.47954 7.21332C4.024 4.87089 5.77492 2.78244 8.70508 2.05558C11.0163 1.48225 13.0331 1.70626 14.7339 3.55343C15.8056 4.73982 16.6801 6.09062 17.3236 7.55424C18.431 10.0264 19.1679 12.648 19.5108 15.335C19.8021 17.4961 19.2363 19.5747 18.4837 21.6067C17.9645 23.1143 17.1005 24.48 15.9605 25.5951C14.8206 26.7102 13.4363 27.5438 11.9175 28.0298C9.6731 28.7795 7.40425 28.1582 5.35457 26.9441C4.9922 26.7294 4.70766 26.3656 4.23761 26.3543ZM3.48767 15.1848C3.43749 17.8516 4.82171 21.2593 7.96635 23.8421C9.36316 24.9893 11.0107 25.7904 12.8668 25.4277C16.1711 24.7819 17.8179 21.4907 18.3049 19.124C18.677 17.0374 18.5706 14.8936 17.9938 12.8541C17.308 10.0982 16.3815 7.45649 14.7141 5.11504C12.1238 1.47757 7.21974 1.86405 5.22509 5.87079C3.97804 8.37577 3.53337 11.0479 3.48767 15.1848ZM3.14937 8.23911C2.7906 8.49243 2.54501 8.87591 2.46499 9.30775C2.35002 9.94683 2.11011 10.5634 1.99229 11.2022C1.70484 12.7607 1.22465 14.2986 1.59095 15.9249C1.81545 16.9216 1.90275 17.9455 2.13732 18.946C2.53801 20.924 3.28576 22.8156 4.34593 24.533C5.05705 25.6177 5.66626 25.7541 6.88281 25.318C7.66413 25.0378 7.43508 24.7612 6.98786 24.4423C6.15598 23.7885 5.44842 22.9905 4.89891 22.0864C3.75501 20.3799 2.99908 18.4434 2.68433 16.4132C2.38145 14.5241 2.37818 12.5989 2.67466 10.7086C2.78902 9.93832 3.18867 9.21958 3.14937 8.23911Z" fill="#4035A7"/>
<path d="M39.4274 9.71592C39.5843 12.0529 38.8607 14.364 37.3989 16.1941C36.8069 16.8558 36.1159 17.4219 35.3505 17.8721C34.7836 18.252 34.7531 18.5364 35.1029 19.1118C36.1351 20.7228 37.0461 22.4084 37.8281 24.1547C38.5428 25.8561 38.5703 27.5007 36.5007 28.5756C35.6386 29.0235 34.8105 29.533 33.917 29.9262C33.2445 30.2222 32.7691 30.1675 32.306 29.5131C31.3586 28.1742 30.6843 26.6885 29.8708 25.2787C29.7457 25.0619 29.7118 24.6084 29.3509 24.7262C29.0435 24.8265 29.1321 25.2357 29.1728 25.4996C29.3365 26.7488 29.3115 28.0153 29.0987 29.257C28.9275 30.4318 28.3446 30.8382 27.2088 30.5278C26.3455 30.3123 25.4535 30.2353 24.5661 30.2996C24.1364 30.3286 23.7068 30.2423 23.3218 30.0497C22.9366 29.8571 22.6099 29.5651 22.3755 29.2039C21.8778 28.585 21.5172 27.8677 21.3173 27.0992C21.1173 26.3307 21.0827 25.5286 21.2157 24.7457C21.5751 22.3257 21.7848 19.8693 22.101 17.4362C22.586 13.7031 23.0476 9.9659 23.6662 6.24942C23.8199 5.32593 24.0116 4.40116 24.1127 3.46222C24.2924 1.79071 25.1604 1.08081 26.9042 0.990234C27.7053 0.995904 28.5015 1.11665 29.2683 1.34879C31.1803 1.7999 33.1808 1.85377 35.025 2.59489C38.1063 3.83308 39.381 5.7133 39.4264 9.02928C39.4296 9.25837 39.4269 9.48756 39.4274 9.71592ZM28.8358 26.7683H28.8442C28.8442 26.2814 28.8081 25.791 28.8544 25.3085C28.901 24.8231 28.5764 24.0366 29.1123 23.924C29.707 23.799 29.9127 24.6111 30.1603 25.0964C30.8618 26.5591 31.6677 27.9691 32.5718 29.3159C32.9052 29.7875 33.218 29.9734 33.7791 29.638C34.3614 29.29 35.0144 29.0625 35.6115 28.7365C38.1272 27.3624 38.4444 26.5143 37.3475 23.8453C36.6091 22.1792 35.7254 20.5813 34.7066 19.0702C34.3354 18.4862 34.4187 18.161 34.9182 17.8079C35.2209 17.5938 35.5192 17.3732 35.8127 17.1461C36.6021 16.5808 37.2795 15.8737 37.8104 15.0608C38.9269 13.1463 39.3957 10.9225 39.1469 8.72014C38.8898 5.37802 37.3673 3.40005 34.0522 2.62844C32.0018 2.15119 29.9105 1.85026 27.8583 1.37953C26.9135 1.16282 26.0994 1.46746 25.297 1.77492C24.3475 2.13871 24.4917 3.16894 24.3598 3.92115C23.893 6.58275 23.5444 9.26519 23.1595 11.9409C22.8554 14.0547 22.5279 16.1661 22.2753 18.2862C21.9619 20.9161 21.722 23.5546 21.4355 26.1879C21.3469 27.002 22.624 29.4177 23.3742 29.7583C23.5325 29.8248 23.7046 29.8519 23.8758 29.8373C25.0459 29.8036 26.2154 29.9233 27.3545 30.1933C28.3523 30.377 28.7729 30.0391 28.8281 29.0018C28.8676 28.2592 28.8358 27.5129 28.8358 26.7683Z" fill="#837CC6"/>
<path d="M4.23751 26.3543C4.70758 26.3656 4.99211 26.7295 5.35448 26.9441C7.40417 28.1582 9.67303 28.7795 11.9173 28.0298C13.4361 27.5439 14.8205 26.7102 15.9605 25.5951C17.1003 24.48 17.9643 23.1143 18.4836 21.6067C19.2362 19.5747 19.802 17.4961 19.5107 15.3351C19.1678 12.6481 18.4309 10.0264 17.3236 7.55427C16.68 6.09065 15.8055 4.73986 14.7337 3.55347C13.0331 1.7063 11.0162 1.48228 8.70501 2.05562C5.77483 2.78248 4.02392 4.87093 2.47948 7.21336C1.95953 8.00192 1.83613 8.9881 1.67283 9.88876C1.30359 11.9256 0.872635 13.948 0.874915 16.0598C0.877579 18.5244 1.61201 20.7503 2.43419 23.0014C2.84778 24.1337 3.64223 25.0502 4.05426 26.1703C3.16847 25.5831 2.8694 24.6003 2.42193 23.7241C0.754147 20.4586 0.328178 16.9539 0.705996 13.3743C0.898325 11.4987 1.28842 9.6487 1.86977 7.85505C2.46313 6.04786 3.89292 4.84941 5.19234 3.5509C6.6696 2.07469 8.56708 1.65777 10.4836 1.38564C12.0047 1.16965 13.3379 1.8684 14.4687 2.86674C16.324 4.50498 17.3935 6.65489 18.2178 8.92559C19.1847 11.5897 20.0617 14.3094 19.7878 17.1889C19.3617 21.6688 17.6679 25.3185 13.4729 27.707C10.6978 29.2871 6.53729 28.3067 4.59804 26.8055C4.44981 26.6907 4.24599 26.5926 4.23751 26.3543Z" fill="#837CC6"/>
<path d="M45.9649 3.62231C45.6796 4.926 45.0697 6.12495 44.7813 7.43407C44.1931 10.1031 43.5449 12.7591 42.8977 15.4147C42.3643 17.6034 41.7935 19.7825 41.0607 21.9159C40.7111 22.9697 40.4776 24.0585 40.3641 25.1629C40.3194 25.4466 40.3458 25.7371 40.4408 26.0083C40.5357 26.2794 40.6963 26.5228 40.9082 26.7168C41.8619 27.5826 42.9099 28.3384 44.0325 28.97C44.2983 29.1151 44.5956 29.1931 44.8984 29.1975C45.2012 29.2019 45.5005 29.1324 45.7704 28.995C46.7098 28.5888 47.6346 28.1492 48.5656 27.7236C47.5838 28.7467 46.2858 29.1887 44.9789 29.5283C44.2792 29.7102 43.7063 29.1169 43.1377 28.748C42.2553 28.2149 41.4271 27.5966 40.6654 26.902C40.405 26.6542 40.2122 26.3441 40.1049 26.001C39.9976 25.6581 39.9795 25.2934 40.0522 24.9414C40.3661 23.1729 40.8271 21.4337 41.4301 19.7419C41.9539 18.1119 42.2921 16.4388 42.6825 14.7764C43.079 13.0873 43.5716 11.4202 43.9511 9.72766C44.2307 8.24418 44.6131 6.78192 45.0956 5.35146C45.3215 4.75 45.4331 4.07594 45.9649 3.62231Z" fill="#837CC6"/>
<path d="M55.6461 25.872C56.827 26.5983 57.7254 25.6839 58.648 25.2682C60.4618 24.4507 62.166 23.3997 64.0986 22.8321C64.7399 22.6438 65.0459 22.2459 64.6946 21.4633C63.6901 19.2246 62.4408 17.1095 61.4337 14.8753C59.6407 10.8979 57.8589 6.91547 56.0883 2.92809C56.0607 2.81966 56.0507 2.70752 56.0588 2.59595C56.6298 2.83142 56.6188 3.43204 56.8225 3.87704C59.3904 9.48827 61.7436 15.1989 64.6278 20.6633C64.7479 20.8906 64.8535 21.126 64.9565 21.3618C65.3387 22.2372 65.1663 22.8309 64.2429 23.1061C61.8361 23.8234 59.719 25.1471 57.4691 26.1914C56.8091 26.4978 56.1117 26.7825 55.6461 25.872Z" fill="#837CC6"/>
<path d="M70.2538 15.9153C71.6385 16.5709 73.0286 17.2153 74.4051 17.8878C74.9117 18.1454 75.441 18.3559 75.9863 18.5166C76.8555 18.7591 77.0731 19.4024 76.597 20.1663C76.0222 21.0887 75.1418 21.3511 73.9904 21.0945C72.1856 20.6921 70.7321 19.6033 69.1798 18.717C68.5812 18.3753 68.3532 18.508 68.0688 19.0499C67.4167 20.251 66.8594 21.5011 66.4022 22.7889C66.0036 23.9628 66.7816 24.8627 67.1396 25.8575C67.3286 26.3829 67.739 26.8347 67.6552 27.4484C66.9449 26.3886 66.4134 25.2192 66.0817 23.9871C65.7742 22.8409 66.4468 21.8272 66.8579 20.8061C67.1339 20.1203 67.5208 19.4797 67.8407 18.8105C68.1582 18.1467 68.5865 18.0707 69.2311 18.4008C70.4498 19.025 71.5035 19.9488 72.8285 20.3745C73.397 20.5571 73.9666 20.7378 74.542 20.897C74.8098 20.9504 75.0869 20.9335 75.3463 20.848C75.6056 20.7625 75.8385 20.6113 76.022 20.409C76.1905 20.2968 76.3236 20.1391 76.406 19.9542C76.4883 19.7694 76.5165 19.565 76.4872 19.3647C76.399 18.9418 76.0066 18.8625 75.6519 18.7313C73.881 18.013 72.1568 17.1844 70.4896 16.2503C70.382 16.1944 70.3311 16.0295 70.2538 15.9153Z" fill="#837CC6"/>
<path d="M48.9225 27.3484C48.94 27.2948 48.9412 27.2122 48.9775 27.1916C51.104 25.9834 50.5998 24.0093 50.3736 22.1744C50.2168 20.902 50.2348 19.6043 49.8792 18.3557C49.7719 17.9793 50.0285 17.7412 50.3294 17.6205C50.7784 17.435 51.2432 17.2903 51.7181 17.1884C52.281 17.0742 52.3719 17.5511 52.4641 17.9292C52.8338 19.1874 53.1048 20.4725 53.2747 21.7729C53.3225 22.6953 53.6886 23.5725 54.3107 24.2553C54.4664 24.42 54.6483 24.576 54.6216 24.8399C53.5286 24.0854 53.1211 23.0044 52.9637 21.7197C52.7763 20.4821 52.5245 19.2553 52.2092 18.044C52.0546 17.3732 51.5602 17.5833 51.112 17.6852C50.6067 17.8 50.2035 17.9128 50.2701 18.6123C50.4322 20.3168 50.8263 21.9987 50.7787 23.7237C50.7692 24.0671 50.7804 24.4111 50.7797 24.7547C50.7771 26.1502 50.2968 26.8205 48.9225 27.3484Z" fill="#837CC6"/>
<path d="M67.6675 27.4614C70.0465 28.0278 72.4946 28.249 74.9367 28.118C77.3169 28.0437 79.4892 27.4492 81.216 25.6903C81.3045 25.6242 81.4024 25.5717 81.5064 25.5344C81.2579 26.434 80.4621 26.8123 79.76 27.1848C77.482 28.3934 75.0251 28.6731 72.4759 28.4359C71.2533 28.3748 70.0354 28.2383 68.8296 28.027C68.3879 27.9301 67.9041 27.9622 67.6675 27.4614Z" fill="#837CC6"/>
<path d="M81.2638 3.35046C80.3341 3.07522 79.5233 2.53538 78.6265 2.17107C76.2737 1.21529 74.1186 1.55546 71.9922 2.74898C71.1115 3.21791 70.2618 3.74318 69.4487 4.32149C69.2042 4.50354 68.9742 4.75276 68.6204 4.72831C68.611 4.52013 68.7821 4.43077 68.9107 4.33718C70.3936 3.22873 72.0225 2.33031 73.7511 1.66737C75.4342 1.04355 77.0575 1.29705 78.6589 1.8848C79.597 2.22917 80.6234 2.45977 81.2638 3.35046Z" fill="#837CC6"/>
<path d="M81.5048 25.5367C81.8214 24.5728 82.2692 23.6553 82.6706 22.7325C83.5313 20.7537 83.2135 18.9242 82.4294 17.05C81.9592 15.926 81.3324 14.8863 80.8124 13.7906C80.9255 13.8123 81.0316 13.8613 81.1214 13.9333C81.2112 14.0054 81.2821 14.0984 81.3278 14.204C82.4487 16.2527 83.7279 18.3033 83.4372 20.7475C83.2325 22.4701 82.7783 24.1956 81.5048 25.5367Z" fill="#837CC6"/>
<path d="M56.0503 2.58699C56.0224 2.5925 55.9837 2.61279 55.9679 2.6014C54.1663 1.3011 52.3096 2.03964 50.425 2.3724C48.8931 2.64287 47.3747 2.87917 45.9794 3.60658C46.5496 2.78875 47.4664 2.54063 48.3349 2.40748C49.9939 2.15319 51.6264 1.80186 53.2659 1.4567C54.3692 1.22439 55.2558 1.87543 56.0503 2.58699Z" fill="#837CC6"/>
<path d="M67.7422 5.60461C67.6012 6.30227 67.1431 6.87056 66.9954 7.57989C66.5164 9.88089 67.4411 11.8063 68.5289 13.7024C68.7376 14.0661 69.1038 14.3478 69.1132 14.816C67.9986 13.8723 67.5996 12.5219 67.0471 11.2485C66.7013 10.4784 66.5288 9.64177 66.5418 8.79777C66.5548 7.95373 66.7529 7.12282 67.1221 6.36373C67.2604 6.05753 67.3588 5.71324 67.7422 5.60461Z" fill="#837CC6"/>
<path d="M80.2997 13.282C78.6856 12.306 76.818 11.7345 75.4859 10.3145C75.201 10.0107 74.6714 9.67087 75.2124 9.13538C75.3411 10.0526 76.0441 10.5282 76.7221 10.9688C77.5482 11.5056 78.4477 11.9283 79.297 12.4315C79.673 12.6542 80.1397 12.795 80.2997 13.282Z" fill="#837CC6"/>
<path d="M81.4578 9.65095C81.4627 9.59482 81.4472 9.52409 81.4754 9.48461C82.8579 7.55519 82.4918 5.62769 81.478 3.69784C81.462 3.64367 81.4559 3.5871 81.4598 3.53076C82.4505 4.04262 82.4132 5.06095 82.5916 5.93883C82.8412 7.16708 82.7696 8.36917 81.852 9.3643C81.7418 9.48367 81.6611 9.65478 81.4578 9.65095Z" fill="#837CC6"/>
<path d="M75.2476 9.10079C75.734 8.59964 76.3229 8.81152 76.8377 8.95717C77.7292 9.15351 78.5935 9.4579 79.4113 9.86355C80.0558 10.232 80.6543 10.0698 81.2702 9.83801C80.8939 10.4946 80.3785 10.5687 79.6983 10.301C78.2623 9.73604 76.8589 9.02522 75.2476 9.10079Z" fill="#837CC6"/>
<path d="M69.1247 14.8251C69.3554 14.9163 69.5646 15.0545 69.7392 15.2307C69.9137 15.407 70.0499 15.6176 70.1388 15.8492C69.8972 15.7779 69.6773 15.6467 69.5 15.4676C69.3227 15.2885 69.1936 15.0675 69.1247 14.8251Z" fill="#837CC6"/>
<path d="M68.4171 4.90283C68.3871 5.06935 68.3087 5.22334 68.1917 5.3456C68.0748 5.46786 67.9244 5.55297 67.7593 5.59031C67.7721 5.41714 67.8447 5.25378 67.9647 5.12832C68.0847 5.00285 68.2447 4.92312 68.4171 4.90283Z" fill="#837CC6"/>
<path d="M74.0878 25.1362C72.0271 25.2392 69.9694 24.8807 68.0651 24.0867C67.3978 23.8384 66.9919 23.5252 67.4626 22.6974C67.8929 21.8929 68.2516 21.0522 68.5346 20.1849C68.7478 19.5822 69.0021 19.5927 69.4792 19.8974C70.8243 20.8185 72.3144 21.5074 73.8876 21.9353C74.4428 22.0815 75.0241 22.1 75.5876 21.9894C76.1511 21.8787 76.6822 21.6418 77.141 21.2964C78.2721 20.4836 78.3048 18.6366 77.2881 17.2808C76.3283 16.001 74.8731 15.5068 73.5191 14.8385C72.294 14.2339 70.9844 13.8001 69.8494 13.0112C69.2128 12.5818 68.6905 12.0035 68.328 11.3266C67.9654 10.6497 67.7735 9.8946 67.7688 9.12671C67.764 8.35883 67.9467 7.6014 68.301 6.92011C68.6553 6.23882 69.1704 5.65424 69.8017 5.21708C71.1426 4.29313 72.5826 3.52191 74.0947 2.91779C75.5714 2.31293 76.9555 2.87926 78.341 3.32853C78.4493 3.36365 78.5481 3.42707 78.6554 3.46644C80.4778 4.13516 80.4697 4.14349 79.6164 5.9007C79.3791 6.38945 79.2071 6.60555 78.5962 6.3324C77.2244 5.71908 75.7412 5.75321 74.2849 5.9119C72.7015 6.08449 71.8837 7.62878 72.5104 9.1221C72.9333 10.1041 73.6874 10.9065 74.6413 11.3893C75.7215 11.9753 76.8019 12.5631 77.9049 13.1039C80.236 14.2468 81.2563 16.1499 81.3236 18.688C81.4125 19.9477 81.1412 21.2068 80.5412 22.318C79.4699 24.1691 77.7882 24.9864 75.7247 25.1301C75.1542 25.1699 74.5786 25.1362 74.0878 25.1362Z" fill="#CCF575"/>
<path d="M73.4632 27.4131C72.0123 27.2526 70.3677 27.077 68.7252 26.8843C68.3318 26.8382 67.4655 25.554 67.5799 25.219C67.691 24.8932 67.9101 25.1133 68.0755 25.1468C69.0235 25.3391 69.9306 25.6804 70.8742 25.9064C72.271 26.2409 73.66 26.1624 75.0574 26.1975C75.3998 26.1501 75.7486 26.1986 76.065 26.3376C76.2643 26.4627 76.6523 26.4566 76.5816 26.7991C76.5272 27.0628 76.2141 27.1717 75.9635 27.2001C75.1979 27.287 74.4277 27.3345 73.4632 27.4131Z" fill="#837CC6"/>
<path d="M78.0308 7.43567C78.214 7.47878 78.3934 7.53622 78.5675 7.60748C78.998 7.82894 79.7541 7.96663 79.5138 8.56901C79.2639 9.19507 78.6961 8.61071 78.2912 8.49913C77.9994 8.39487 77.6956 8.32771 77.3871 8.29925C77.1495 8.29402 76.9099 8.23684 76.8723 7.95764C76.8258 7.61299 77.1246 7.64965 77.3322 7.59916C77.5778 7.53942 77.8244 7.48378 78.0308 7.43567Z" fill="#837CC6"/>
<path d="M47.8883 16.0224C47.8315 16.0791 47.7749 16.1358 47.7182 16.1926C47.4185 16.2642 47.4235 16.5081 47.4258 16.7352C47.4433 18.4764 47.3843 20.224 47.5209 21.956C47.5931 22.8713 47.4693 23.4613 46.585 23.8612C44.9392 24.6053 43.4712 25.8102 41.5245 25.7444L41.496 25.7112C41.8432 24.2947 42.1645 22.8714 42.5423 21.4632C43.9212 16.3236 45.1653 11.1519 46.2746 5.94804C46.3314 5.49678 46.5406 5.07848 46.8677 4.76237C47.1947 4.44627 47.6199 4.25131 48.0728 4.20976C49.5615 3.92701 51.0546 3.64857 52.5193 3.26699C53.2184 3.08489 53.5356 3.21669 53.8325 3.87892C56.0332 8.78836 58.2578 13.687 60.5063 18.5751C60.8059 19.2282 60.6623 19.6 60.0084 19.8223C58.3836 20.3747 56.7574 20.9228 55.1358 21.4845C54.7389 21.6221 54.6339 21.4363 54.5718 21.0945C54.4334 20.3347 54.2741 19.5785 54.1161 18.8224C53.9056 17.5519 53.5849 16.302 53.1576 15.0871C52.7273 14.0085 52.2725 13.8133 51.2355 14.2292C51.0721 14.2821 50.9122 14.3448 50.7564 14.417C49.7965 14.9453 48.62 15.088 47.8883 16.0224ZM47.777 10.4189C47.6956 12.0887 48.0311 12.3284 49.3709 11.8567C49.5322 11.7999 49.7039 11.7731 49.8656 11.7171C52.0243 10.9707 52.14 10.6492 51.5151 8.41434C50.9771 6.49028 50.6206 6.85093 49.1518 7.30089C48.9386 7.38608 48.7479 7.51912 48.5942 7.68976C48.4405 7.86038 48.3282 8.06403 48.2657 8.28499C47.9805 8.96262 47.8151 9.68465 47.777 10.4189Z" fill="#FCFCFD"/>
<path d="M47.8883 16.0224C48.62 15.088 49.7966 14.9453 50.7564 14.417C50.9122 14.3449 51.0722 14.2821 51.2355 14.2292C52.2725 13.8133 52.7274 14.0085 53.1576 15.087C53.585 16.302 53.9057 17.5518 54.1161 18.8224C54.2741 19.5785 54.4334 20.3346 54.5717 21.0945C54.6339 21.4362 54.739 21.622 55.1358 21.4845C56.7574 20.9228 58.3837 20.3747 60.0084 19.8222C60.6622 19.5999 60.8059 19.2282 60.5063 18.5751C58.2632 13.6848 56.0386 8.78605 53.8325 3.87891C53.5356 3.21668 53.2184 3.08487 52.5193 3.26698C51.0545 3.64856 49.5615 3.927 48.0728 4.20975C47.6199 4.25129 47.1947 4.44626 46.8677 4.76236C46.5407 5.07847 46.3314 5.49677 46.2745 5.94803C45.1751 11.1534 43.931 16.3252 42.5423 21.4632C42.1645 22.8714 41.8433 24.2947 41.4959 25.7111C41.1443 25.5884 41.2245 25.3105 41.2876 25.0673C41.9222 22.6195 42.6082 20.1841 43.1935 17.7247C43.8066 15.1483 44.54 12.602 45.0467 9.99767C45.3144 8.36735 45.6927 6.75711 46.1788 5.17806C46.6164 3.89084 47.8253 3.95817 48.7906 3.7305C50.0891 3.4242 51.4442 3.32547 52.7148 2.90229C53.4962 2.64205 53.7939 2.96504 54.0751 3.59712C55.5038 6.80862 56.9547 10.0103 58.3991 13.2147C59.2333 15.0653 60.0302 16.9346 60.9273 18.7542C61.239 19.3862 61.0311 19.6115 60.5346 19.8913C59.4298 20.4292 58.2762 20.8604 57.0894 21.1788C56.497 21.3776 55.8907 21.5366 55.3021 21.7454C54.7538 21.9399 54.4494 21.9485 54.2781 21.2209C53.8281 19.3097 53.641 17.3371 52.9472 15.4822C52.4715 14.2102 52.3546 14.1673 51.0903 14.6076C49.9823 14.9935 49.0343 15.7302 47.8883 16.0224Z" fill="#837CC6"/>
<path d="M62.7234 21.6882C62.7585 22.0315 62.4789 22.1152 62.2577 22.2223C60.5284 23.0594 58.7962 23.8902 57.0607 24.7145C56.5483 24.9564 54.9862 23.8754 55.0223 23.3087C55.0433 22.9809 55.3195 22.8706 55.5908 22.7484C56.7095 22.2441 57.9699 22.2447 59.0897 21.7485C59.8128 21.4282 60.5381 21.1123 61.2697 20.8123C61.4228 20.7693 61.5831 20.7583 61.7405 20.7796C61.8981 20.8009 62.0496 20.8543 62.1857 20.9363C62.322 21.0184 62.4398 21.1273 62.5324 21.2566C62.6248 21.3859 62.6898 21.5328 62.7234 21.6882Z" fill="#837CC6"/>
<path d="M44.8678 28.0777C44.3096 27.9295 43.8232 27.5854 43.4976 27.1084C43.318 26.8372 43.5501 26.6318 43.84 26.5609C44.9305 26.251 45.9797 25.8109 46.9648 25.2499C47.1366 25.1199 47.3401 25.0382 47.554 25.0134C47.7681 24.9886 47.9849 25.0215 48.1818 25.1088C48.9115 25.5033 48.9658 25.9546 48.2969 26.4266C47.6739 26.8663 45.2385 28.0651 44.8678 28.0777Z" fill="#837CC6"/>
<path d="M41.5244 25.7444C43.4711 25.8102 44.9391 24.6054 46.5849 23.8612C47.4693 23.4613 47.593 22.8713 47.5209 21.956C47.3843 20.224 47.4433 18.4764 47.4258 16.7352C47.4234 16.5081 47.4185 16.2642 47.7182 16.1926C47.7208 17.794 47.7237 19.3955 47.727 20.9969C47.7117 21.254 47.7194 21.5121 47.75 21.7677C48.1222 23.7689 47.9431 23.3057 46.55 24.2043C45.5331 24.839 44.4545 25.369 43.3307 25.7861C42.7516 26.0109 42.1116 26.3113 41.5244 25.7444Z" fill="#837CC6"/>
<path d="M3.4877 15.1848C3.53341 11.0479 3.97808 8.37576 5.22512 5.87078C7.21977 1.86405 12.1238 1.47756 14.7142 5.11505C16.3816 7.45648 17.3081 10.0982 17.9938 12.8541C18.5707 14.8936 18.677 17.0374 18.305 19.124C17.8179 21.4907 16.1712 24.7819 12.8668 25.4277C11.0108 25.7904 9.36328 24.9893 7.9664 23.8421C4.82174 21.2593 3.43753 17.8516 3.4877 15.1848ZM7.85744 11.0091C7.83863 12.5806 8.0114 14.1485 8.37192 15.6782C8.58189 16.8374 9.12794 17.9095 9.9422 18.7609C10.2644 19.0878 10.6591 19.3341 11.0942 19.4799C11.5295 19.6257 11.9928 19.6669 12.4469 19.6002C12.901 19.5335 13.333 19.3607 13.7078 19.0958C14.0827 18.831 14.3897 18.4815 14.6043 18.0757C15.6074 16.2469 15.5185 14.3543 14.9356 12.4274C14.3012 10.3303 13.4516 8.33718 11.9352 6.71924C10.6779 5.37772 8.88342 5.82037 8.29526 7.54423C7.95417 8.66607 7.80612 9.83774 7.85744 11.0091Z" fill="#D04485"/>
<path d="M3.14934 8.23914C3.18865 9.2196 2.78898 9.93834 2.67462 10.7087C2.37815 12.5989 2.38141 14.5241 2.68429 16.4133C2.99904 18.4434 3.75497 20.3799 4.89888 22.0864C5.44838 22.9906 6.15595 23.7886 6.98783 24.4423C7.43505 24.7613 7.6641 25.0378 6.88278 25.318C5.66623 25.7542 5.05702 25.6178 4.3459 24.533C3.28573 22.8156 2.53799 20.924 2.1373 18.946C1.90272 17.9455 1.81541 16.9216 1.59094 15.9249C1.22466 14.2987 1.70482 12.7607 1.99227 11.2023C2.1101 10.5634 2.34999 9.94686 2.46498 9.30777C2.54499 8.87594 2.79057 8.49246 3.14934 8.23914Z" fill="#837CC6"/>
<path d="M28.8357 26.7682C28.8357 27.5129 28.8676 28.2592 28.8281 29.0017C28.7729 30.0391 28.3522 30.377 27.3545 30.1932C26.2154 29.9232 25.0458 29.8036 23.8758 29.8373C23.7045 29.8519 23.5324 29.8247 23.3741 29.7582C22.624 29.4177 21.3469 27.002 21.4355 26.1879C21.7219 23.5547 21.9619 20.9161 22.2752 18.2861C22.5278 16.166 22.8553 14.0547 23.1594 11.9409C23.5444 9.26517 23.893 6.58273 24.3597 3.92115C24.4916 3.16894 24.3475 2.13872 25.2969 1.77492C26.0994 1.46746 26.9135 1.16282 27.8583 1.37954C29.9104 1.85027 32.0017 2.15121 34.0522 2.62844C37.3673 3.40004 38.8897 5.37802 39.1469 8.72014C39.3957 10.9224 38.9269 13.1462 37.8104 15.0608C37.2794 15.8736 36.602 16.5808 35.8127 17.1462C35.5189 17.3726 35.2208 17.5932 34.9181 17.8079C34.4186 18.1611 34.3354 18.4862 34.7066 19.0701C35.7253 20.5813 36.609 22.1791 37.3475 23.8454C38.4444 26.5144 38.1271 27.3624 35.6115 28.7364C35.0144 29.0624 34.3614 29.29 33.7791 29.638C33.218 29.9734 32.9052 29.7875 32.5718 29.3159C31.6677 27.9692 30.8618 26.559 30.1603 25.0965C29.9127 24.611 29.7069 23.7991 29.1122 23.924C28.5763 24.0366 28.901 24.8231 28.8544 25.3086C28.8081 25.791 28.8442 26.2813 28.8442 26.7683L28.8357 26.7682ZM22.4454 26.1963C22.4248 26.2894 22.4259 26.386 22.4485 26.4786C22.471 26.5714 22.5145 26.6576 22.5756 26.7309C22.6367 26.8041 22.7138 26.8623 22.8009 26.9011C22.888 26.94 22.9829 26.9584 23.0782 26.9548C23.8715 27.0518 24.6647 27.159 25.4611 27.2203C26.9094 27.3319 26.9505 27.323 27.0921 25.8398C27.3523 23.1123 27.5605 20.3797 27.7892 17.6492C27.8102 17.3976 27.749 17.0733 28.057 16.9905C28.3628 16.9083 28.4903 17.2046 28.6122 17.4259C29.2019 18.4973 29.8032 19.5629 30.3663 20.6482C31.3345 22.5142 32.2973 24.3835 33.22 26.2721C33.5472 26.9417 33.8783 27.0196 34.4668 26.5822C34.9984 26.1984 35.5597 25.8575 36.1455 25.5627C36.2451 25.5192 36.3344 25.4552 36.4077 25.3749C36.481 25.2946 36.5367 25.1998 36.5711 25.0967C36.6056 24.9936 36.6179 24.8844 36.6074 24.7761C36.597 24.668 36.5639 24.5631 36.5104 24.4685C36.1625 23.5368 35.757 22.6276 35.2965 21.7461C34.5309 20.347 33.6838 18.9924 32.8632 17.6237C32.7758 17.5186 32.7114 17.3965 32.6739 17.2652C32.6365 17.1338 32.627 16.9961 32.6458 16.8608C32.6647 16.7256 32.7115 16.5957 32.7836 16.4796C32.8555 16.3635 32.9509 16.2637 33.0637 16.1866C33.3853 15.901 33.6884 15.595 33.9712 15.2708C35.4353 13.705 36.9268 12.1541 37.7525 10.1256C38.0771 9.48778 38.243 8.78101 38.236 8.06534C38.0471 6.14109 35.7572 3.83784 33.8407 3.51164C31.6784 3.14362 29.5216 2.74315 27.3654 2.34012C26.2228 2.12653 25.728 2.55255 25.5212 3.66691C25.1986 5.40509 24.9677 7.15486 24.7021 8.90022C24.4019 10.8727 24.0976 12.845 23.8398 14.8232C23.5452 17.085 23.3269 19.3567 23.0237 21.6172C22.8191 23.1438 22.8959 24.7045 22.4454 26.1963ZM23.8531 27.903C23.501 28.0139 22.9946 27.7352 22.9086 28.1357C22.8302 28.5007 23.1719 28.85 23.5275 29.0924C23.7754 29.2352 24.0607 29.2999 24.3459 29.2776C25.1459 29.3066 25.9463 29.3333 26.7455 29.3784C27.0607 29.3962 27.4594 29.68 27.5955 29.1635C27.626 29.0649 27.6323 28.9603 27.6135 28.8588C27.5948 28.7572 27.5518 28.6617 27.4882 28.5804C27.4245 28.4991 27.3421 28.4344 27.2479 28.392C27.1537 28.3496 27.0507 28.3306 26.9476 28.3366C25.8857 28.2976 24.8607 28.0277 23.8531 27.903ZM32.8378 28.2402C32.8953 28.1348 32.9271 28.0175 32.9307 27.8976C32.9345 27.7777 32.9098 27.6585 32.8588 27.5499C31.9836 25.409 30.974 23.3256 29.8362 21.312C29.7016 21.0539 29.6309 20.4809 29.1691 20.7635C28.753 21.018 29.1889 21.3799 29.3211 21.65C29.9944 23.0256 30.6872 24.3917 31.3994 25.7482C31.8281 26.5668 32.1109 27.4747 32.8378 28.2402Z" fill="#4035A7"/>
<path d="M47.7769 10.4189C47.815 9.68464 47.9804 8.9626 48.2657 8.28498C48.3281 8.06402 48.4404 7.86037 48.5941 7.68973C48.7478 7.51911 48.9386 7.38606 49.1518 7.30087C50.6205 6.85091 50.977 6.49027 51.515 8.41432C52.14 10.6492 52.0241 10.9706 49.8656 11.7171C49.7039 11.7731 49.5321 11.7999 49.3708 11.8567C48.031 12.3284 47.6955 12.0887 47.7769 10.4189ZM49.2491 9.68483C49.3076 9.93855 49.1245 10.3397 49.5768 10.3448C49.6496 10.3473 49.7222 10.3353 49.7904 10.3095C49.8585 10.2837 49.9208 10.2445 49.9736 10.1942C50.0264 10.144 50.0687 10.0837 50.0979 10.017C50.127 9.95024 50.1427 9.87839 50.1437 9.80551C50.1481 9.62982 50.0868 9.4588 49.9717 9.32592C49.8568 9.19304 49.6963 9.10781 49.5218 9.08691C49.1342 9.05901 49.3412 9.47742 49.2491 9.68483Z" fill="#4035A7"/>
<path d="M7.85775 11.0092C7.80612 9.83767 7.95404 8.66604 8.2952 7.54421C8.88335 5.82035 10.6778 5.3777 11.9352 6.71922C13.4515 8.33716 14.3011 10.3303 14.9355 12.4274C15.5184 14.3543 15.6073 16.2469 14.6042 18.0757C14.3897 18.4815 14.0826 18.8309 13.7077 19.0958C13.3329 19.3606 12.901 19.5334 12.4468 19.6002C11.9928 19.6669 11.5294 19.6257 11.0942 19.4799C10.659 19.334 10.2643 19.0877 9.9421 18.7609C9.12788 17.9094 8.58184 16.8374 8.37187 15.6782C8.01129 14.1485 7.83864 12.5806 7.85775 11.0092ZM10.5834 17.9368C10.755 18.5278 11.0219 18.642 11.4443 18.3053L11.7646 18.106C11.9333 18.1102 12.1013 18.1303 12.2662 18.166C13.5257 18.5609 13.83 18.431 14.4067 17.2469C14.5258 17.0026 14.6274 16.7281 14.416 16.5347C14.1775 16.3166 13.9379 16.5563 13.7237 16.6777C13.3037 16.9156 13.1359 17.4426 12.6585 17.6189L12.6079 17.564C12.3576 17.018 13.2805 16.6279 12.8092 16.0524L12.8401 15.3782C13.286 15.0259 13.2841 14.6727 12.8428 14.3183L12.804 13.8178C13.1125 13.3849 12.9441 13.1156 12.5026 12.94L12.4496 12.6153C12.5079 12.2519 12.4573 11.8792 12.3041 11.5445C12.1509 11.2097 11.9021 10.9279 11.5889 10.7344C11.5503 10.7108 11.5207 10.6751 11.5047 10.6328C11.6276 10.2419 11.4501 10.0723 11.0741 10.049L11.075 10.0499C11.0407 9.3684 10.4447 9.3545 10.0097 9.2266C9.66106 9.12408 9.25989 9.1876 9.21079 9.7067C8.82026 10.8884 9.12028 12.1028 9.03995 13.2992C8.77534 13.7507 8.78897 14.1246 9.33354 14.3505L9.3934 14.8462C9.09135 15.2738 9.33748 15.5154 9.69044 15.721L9.73881 16.0496C9.71355 16.8161 9.8608 17.5053 10.584 17.9371L10.5834 17.9368Z" fill="#4035A7"/>
<path d="M22.4454 26.1963C22.8959 24.7045 22.8191 23.1438 23.0238 21.6173C23.3269 19.3567 23.5452 17.085 23.8399 14.8232C24.0976 12.845 24.4019 10.8727 24.7021 8.90024C24.9677 7.15488 25.1986 5.40511 25.5212 3.66693C25.7281 2.55256 26.2229 2.12654 27.3655 2.34014C29.5216 2.74317 31.6784 3.14363 33.8408 3.51166C35.7572 3.83786 38.0472 6.14113 38.2361 8.06535C38.243 8.78104 38.0771 9.48779 37.7525 10.1256C36.9269 12.1541 35.4353 13.7051 33.9712 15.2708C33.6886 15.595 33.3854 15.901 33.0637 16.1866C32.951 16.2637 32.8555 16.3635 32.7836 16.4796C32.7117 16.5957 32.6647 16.7256 32.6458 16.8608C32.627 16.9961 32.6365 17.1338 32.674 17.2652C32.7114 17.3965 32.7758 17.5186 32.8632 17.6237C33.6838 18.9924 34.5309 20.3471 35.2965 21.7461C35.7571 22.6276 36.1624 23.5368 36.5104 24.4685C36.564 24.5631 36.597 24.668 36.6075 24.7761C36.6179 24.8844 36.6055 24.9936 36.5712 25.0968C36.5367 25.1999 36.4811 25.2946 36.4077 25.3749C36.3344 25.4552 36.245 25.5192 36.1455 25.5628C35.5597 25.8575 34.9984 26.1984 34.4667 26.5822C33.8783 27.0196 33.5472 26.9417 33.22 26.2721C32.2973 24.3835 31.3344 22.5142 30.3663 20.6482C29.8032 19.5629 29.2019 18.4973 28.6122 17.4258C28.4904 17.2046 28.3629 16.9083 28.057 16.9905C27.7489 17.0733 27.8102 17.3976 27.7892 17.6492C27.5605 20.3797 27.3524 23.1122 27.0921 25.8397C26.9505 27.323 26.9094 27.3318 25.4612 27.2204C24.6647 27.159 23.8716 27.0518 23.0782 26.9548C22.9829 26.9583 22.888 26.94 22.8009 26.9011C22.7138 26.8623 22.6367 26.804 22.5756 26.7309C22.5146 26.6576 22.4711 26.5714 22.4485 26.4787C22.426 26.386 22.4249 26.2894 22.4454 26.1963ZM27.6008 10.7904C27.6008 11.2979 27.6008 11.6124 27.6008 11.927C27.6006 13.131 27.7841 13.3166 28.9928 13.2856C29.925 13.2702 30.8406 13.0362 31.6659 12.6025C32.4912 12.1688 33.2033 11.5475 33.7449 10.7885C34.9463 9.21386 34.9742 6.36612 32.9313 5.4474C31.5114 4.80882 30.0397 4.93942 28.5843 5.28403C28.3986 5.32929 28.2347 5.43824 28.121 5.59192C28.0073 5.74562 27.9512 5.93429 27.9623 6.1251C28.0659 7.76222 27.5168 9.3492 27.6008 10.7904Z" fill="#5EBAB4"/>
<path d="M23.8531 27.9031C24.8606 28.0278 25.8857 28.2977 26.9477 28.3367C27.0507 28.3306 27.1538 28.3496 27.2479 28.3921C27.342 28.4346 27.4244 28.4992 27.4881 28.5804C27.5518 28.6617 27.5949 28.7572 27.6136 28.8588C27.6322 28.9603 27.626 29.0649 27.5954 29.1635C27.4594 29.6801 27.0608 29.3962 26.7456 29.3784C25.9463 29.3334 25.146 29.3067 24.3459 29.2777C24.0606 29.2999 23.7754 29.2354 23.5275 29.0924C23.172 28.85 22.8302 28.5008 22.9085 28.1357C22.9945 27.7352 23.5009 28.0139 23.8531 27.9031Z" fill="#837CC6"/>
<path d="M32.8378 28.2403C32.111 27.4748 31.8281 26.5669 31.3995 25.7483C30.689 24.3913 29.9962 23.0252 29.3212 21.6501C29.189 21.38 28.753 21.0181 29.1691 20.7636C29.6309 20.481 29.7016 21.054 29.8363 21.3121C30.9741 23.3257 31.9836 25.4091 32.8588 27.5499C32.9098 27.6585 32.9345 27.7777 32.9309 27.8977C32.9271 28.0176 32.8953 28.135 32.8378 28.2403Z" fill="#837CC6"/>
<path d="M49.2491 9.68482C49.3413 9.4774 49.1344 9.05903 49.5219 9.0869C49.6964 9.1078 49.8569 9.19303 49.9719 9.32591C50.0868 9.45879 50.1481 9.62981 50.1438 9.8055C50.1427 9.87838 50.1272 9.95023 50.0979 10.017C50.0687 10.0837 50.0265 10.144 49.9736 10.1942C49.9209 10.2445 49.8586 10.2836 49.7905 10.3095C49.7223 10.3353 49.6497 10.3473 49.577 10.3447C49.1246 10.3397 49.3076 9.93863 49.2491 9.68482Z" fill="#837CC6"/>
<path d="M12.4495 12.6153C12.4673 12.7235 12.485 12.8317 12.5027 12.9399C12.4668 13.0998 12.476 13.2665 12.5292 13.4216C12.5824 13.5765 12.6775 13.7136 12.8041 13.8179C12.817 13.9847 12.8299 14.1515 12.8427 14.3184C12.7547 14.666 12.7538 15.03 12.8402 15.3782L12.8092 16.0524L11.7647 18.106L11.4443 18.3053C11.1284 18.2659 10.83 18.1382 10.5835 17.9368L10.584 17.9371C10.3088 17.305 10.1991 16.5989 9.73879 16.0496L9.69042 15.7209C9.73308 15.5621 9.72766 15.3942 9.6747 15.2385C9.62185 15.0827 9.52399 14.9462 9.39338 14.8462C9.37346 14.681 9.35352 14.5157 9.33359 14.3505C9.36766 14.1645 9.35896 13.9732 9.30804 13.791C9.25718 13.6089 9.16549 13.4406 9.03996 13.2992C9.12028 12.1028 8.82027 10.8884 9.21078 9.70668C9.91926 9.34847 10.4888 9.74419 11.0749 10.0499L11.0741 10.049C11.0873 10.3396 11.2995 10.4837 11.5047 10.6328C11.5207 10.6751 11.5504 10.7109 11.5889 10.7344C11.8506 11.3729 11.9864 12.0689 12.4495 12.6153Z" fill="#FCFCFD"/>
<path d="M11.7647 18.106L12.8092 16.0524C13.2805 16.6278 12.3576 17.0179 12.6085 17.5646C12.5216 17.6224 12.4024 17.6612 12.3558 17.7419C12.3463 17.7607 12.343 17.7819 12.3462 17.8027C12.3493 17.8235 12.3589 17.8427 12.3736 17.8579C12.3882 17.8729 12.4072 17.883 12.4278 17.8869C12.4485 17.8906 12.4698 17.8879 12.4889 17.879C12.5688 17.8322 12.6038 17.7087 12.6584 17.6188C13.1358 17.4425 13.3038 16.9155 13.7237 16.6776C13.938 16.5563 14.1776 16.3166 14.416 16.5346C14.6275 16.728 14.5258 17.0025 14.4067 17.2469C13.8299 18.4309 13.5258 18.5609 12.2662 18.166C12.1012 18.1302 11.9334 18.1101 11.7647 18.106Z" fill="#837CC6"/>
<path d="M15.4647 7.90129C14.8786 7.59555 14.309 7.19986 13.6005 7.55807C13.6496 7.03898 14.0508 6.97546 14.3995 7.07799C14.8345 7.20589 15.4305 7.21981 15.4647 7.90129Z" fill="#837CC6"/>
<path d="M12.4495 12.6153C11.9863 12.0689 11.8506 11.3729 11.5889 10.7344C11.9021 10.9278 12.1509 11.2097 12.3041 11.5445C12.4573 11.8792 12.5078 12.2518 12.4495 12.6153Z" fill="#837CC6"/>
<path d="M9.73878 16.0496C10.1991 16.5988 10.3087 17.305 10.5839 17.937C9.86077 17.5053 9.71352 16.8161 9.73878 16.0496Z" fill="#837CC6"/>
<path d="M9.03994 13.2992C9.16547 13.4406 9.25714 13.6089 9.30802 13.7909C9.35888 13.9731 9.36767 14.1645 9.33356 14.3505C8.78896 14.1246 8.77533 13.7507 9.03994 13.2992Z" fill="#837CC6"/>
<path d="M12.804 13.8179C12.6775 13.7136 12.5824 13.5765 12.5292 13.4216C12.4759 13.2665 12.4668 13.0998 12.5026 12.9399C12.9441 13.1156 13.1125 13.385 12.804 13.8179Z" fill="#837CC6"/>
<path d="M12.8402 15.3781C12.7538 15.03 12.7547 14.666 12.8428 14.3184C13.2841 14.6727 13.286 15.026 12.8402 15.3781Z" fill="#837CC6"/>
<path d="M9.39339 14.8462C9.5239 14.9462 9.62185 15.0827 9.67471 15.2385C9.72757 15.3941 9.733 15.5621 9.69043 15.7209C9.33746 15.5155 9.09131 15.2737 9.39339 14.8462Z" fill="#837CC6"/>
<path d="M10.5834 17.9368C10.83 18.1382 11.1284 18.2659 11.4442 18.3053C11.0219 18.642 10.7549 18.5278 10.5834 17.9368Z" fill="#837CC6"/>
<path d="M11.5048 10.6327C11.2996 10.4836 11.0874 10.3395 11.0742 10.049C11.4502 10.0722 11.6276 10.2419 11.5048 10.6327Z" fill="#837CC6"/>
<path d="M27.6008 10.7906C27.5167 9.34925 28.0659 7.76227 27.9623 6.12514C27.9512 5.93432 28.0073 5.74565 28.121 5.59196C28.2347 5.43828 28.3986 5.32932 28.5843 5.28406C30.0397 4.93945 31.5114 4.80886 32.9313 5.44743C34.9742 6.36615 34.9463 9.21389 33.7449 10.7885C33.2033 11.5475 32.4912 12.1688 31.6659 12.6025C30.8406 13.0363 29.925 13.2702 28.9928 13.2857C27.7841 13.3166 27.6006 13.131 27.6008 11.927C27.6009 11.6124 27.6008 11.2978 27.6008 10.7906ZM31.7855 7.96583C31.2303 7.89267 30.7676 8.08359 30.7452 8.79584C30.7202 9.59288 30.7479 10.3917 30.7515 11.1896C30.7537 11.6464 30.9498 11.7461 31.3399 11.5203C32.0247 11.1047 32.5814 10.508 32.9486 9.79599C33.5638 8.68619 33.1466 7.99043 31.7855 7.96583ZM28.6495 9.57567H28.6413C28.6413 10.2057 28.6354 10.8358 28.6437 11.4657C28.6481 11.8021 28.5909 12.2419 29.092 12.2285C29.5497 12.2163 29.6755 11.842 29.6753 11.4275C29.6749 10.6543 29.6502 9.87935 29.6942 9.10843C29.712 8.59578 29.583 8.08873 29.3225 7.64684C29.2111 7.43763 29.0857 7.17499 28.854 7.20329C28.5379 7.2419 28.6615 7.56704 28.6556 7.77173C28.6386 8.3726 28.6495 8.97429 28.6495 9.57567Z" fill="#4035A7"/>
<path d="M12.6585 17.6188C12.6038 17.7086 12.5689 17.8321 12.489 17.879C12.4699 17.8879 12.4485 17.8906 12.4279 17.8869C12.4072 17.883 12.3882 17.8729 12.3735 17.8579C12.3589 17.8428 12.3493 17.8234 12.3462 17.8027C12.343 17.7819 12.3464 17.7607 12.3558 17.7419C12.4024 17.6612 12.5216 17.6224 12.6085 17.5646L12.6585 17.6188Z" fill="#4035A7"/>
<path d="M31.7854 7.96587C33.1466 7.99047 33.5638 8.68623 32.9486 9.79603C32.5814 10.5081 32.0247 11.1048 31.3398 11.5203C30.9498 11.7462 30.7536 11.6464 30.7515 11.1896C30.7478 10.3916 30.7201 9.59292 30.7452 8.79587C30.7676 8.08363 31.2304 7.89271 31.7854 7.96587Z" fill="#FCFCFD"/>
<path d="M28.6496 9.57569C28.6496 8.9743 28.6385 8.37261 28.6557 7.77172C28.6615 7.56704 28.538 7.2419 28.854 7.20328C29.0856 7.17498 29.2112 7.43761 29.3226 7.64683C29.5831 8.08872 29.712 8.59578 29.6943 9.10842C29.6503 9.87927 29.6749 10.6542 29.6753 11.4274C29.6756 11.8421 29.5498 12.2163 29.0921 12.2285C28.591 12.2418 28.6482 11.8021 28.6438 11.4657C28.6355 10.8358 28.6414 10.2057 28.6414 9.57569H28.6496Z" fill="#837CC6"/>
</g>
</g>
<defs>
<filter id="filter0_d_1_1298" x="0.203784" y="0.990234" width="83.6496" height="30.3863" filterUnits="userSpaceOnUse" color-interpolation-filters="sRGB">
<feFlood flood-opacity="0" result="BackgroundImageFix"/>
<feColorMatrix in="SourceAlpha" type="matrix" values="0 0 0 0 0 0 0 0 0 0 0 0 0 0 0 0 0 0 127 0" result="hardAlpha"/>
<feOffset dy="0.374219"/>
<feGaussianBlur stdDeviation="0.18711"/>
<feComposite in2="hardAlpha" operator="out"/>
<feColorMatrix type="matrix" values="0 0 0 0 0 0 0 0 0 0 0 0 0 0 0 0 0 0 0.25 0"/>
<feBlend mode="normal" in2="BackgroundImageFix" result="effect1_dropShadow_1_1298"/>
<feBlend mode="normal" in="SourceGraphic" in2="effect1_dropShadow_1_1298" result="shape"/>
</filter>
<clipPath id="clip0_1_1298">
<rect width="84.48" height="31.9957" fill="white" transform="translate(0 0.0020752)"/>
</clipPath>
</defs>
</svg>
