<svg width="18" height="19" viewBox="0 0 18 19" fill="none" xmlns="http://www.w3.org/2000/svg">
<path d="M3.67188 7.15625C3.67188 6.17969 2.8125 5.32031 1.83594 5.32031C0.820312 5.32031 0 6.17969 0 7.15625C0 8.17188 0.820312 8.99219 1.83594 8.99219H3.67188V7.15625ZM4.57031 7.15625C4.57031 8.17188 5.42969 8.99219 6.40625 8.99219C7.42188 8.99219 8.24219 8.17188 8.24219 7.15625V2.58594C8.24219 1.57031 7.42188 0.75 6.40625 0.75C5.42969 0.75 4.57031 1.57031 4.57031 2.58594V7.15625ZM6.40625 14.5391C5.42969 14.5391 4.57031 15.3984 4.57031 16.375C4.57031 17.3906 5.42969 18.25 6.40625 18.25C7.42188 18.25 8.24219 17.3906 8.24219 16.375V14.5391H6.40625ZM6.40625 13.6406C7.42188 13.6406 8.24219 12.8203 8.24219 11.8047C8.24219 10.7891 7.42188 9.96875 6.40625 9.96875H1.83594C0.820312 9.96875 0 10.7891 0 11.8047C0 12.8203 0.820312 13.6406 1.83594 13.6406H6.40625ZM13.7891 11.8047C13.7891 12.8203 14.6484 13.6406 15.625 13.6406C16.6406 13.6406 17.5 12.8203 17.5 11.8047C17.5 10.7891 16.6406 9.96875 15.625 9.96875H13.7891V11.8047ZM12.8906 11.8047C12.8906 10.7891 12.0703 9.96875 11.0547 9.96875C10.0391 9.96875 9.21875 10.7891 9.21875 11.8047V16.375C9.21875 17.3906 10.0391 18.25 11.0547 18.25C12.0703 18.25 12.8906 17.3906 12.8906 16.375V11.8047ZM11.0547 4.42188C12.0703 4.42188 12.8906 3.5625 12.8906 2.58594C12.8906 1.57031 12.0703 0.75 11.0547 0.75C10.0391 0.75 9.21875 1.57031 9.21875 2.58594V4.42188H11.0547ZM11.0547 5.32031C10.0391 5.32031 9.21875 6.17969 9.21875 7.15625C9.21875 8.17188 10.0391 8.99219 11.0547 8.99219H15.625C16.6406 8.99219 17.5 8.17188 17.5 7.15625C17.5 6.17969 16.6406 5.32031 15.625 5.32031H11.0547Z" fill="#D3D7F6"/>
</svg>
