<svg width="41" height="41" viewBox="0 0 41 41" fill="none" xmlns="http://www.w3.org/2000/svg">
<g clip-path="url(#clip0_1_1721)">
<path d="M9.16268 25.5314C9.16268 27.8489 7.28971 29.722 4.97221 29.722C2.65471 29.722 0.781738 27.8489 0.781738 25.5314C0.781738 23.214 2.65471 21.3411 4.97236 21.3411H9.16252V25.5315L9.16268 25.5314ZM11.258 25.5314C11.258 23.214 13.131 21.3411 15.4486 21.3411C17.766 21.3411 19.6389 23.214 19.6389 25.5315V36.0076C19.6389 38.3251 17.766 40.1983 15.4483 40.1983C13.1311 40.1983 11.258 38.3251 11.258 36.0076V25.5314Z" fill="#E01E5A"/>
<path d="M15.4484 8.70601C13.1309 8.70601 11.2578 6.83304 11.2578 4.51554C11.2578 2.19804 13.1311 0.325073 15.4484 0.325073C17.7658 0.325073 19.6389 2.19804 19.6389 4.51554V8.70617H15.4483L15.4484 8.70601ZM15.4484 10.833C17.7659 10.833 19.6389 12.706 19.6389 15.0235C19.6389 17.341 17.7659 19.214 15.4483 19.214H4.94063C2.62297 19.214 0.75 17.341 0.75 15.0234C0.75 12.7062 2.62297 10.833 4.94047 10.833H15.4484Z" fill="#36C5F0"/>
<path d="M32.2422 15.0235C32.2422 12.706 34.1152 10.8329 36.4326 10.8329C38.7501 10.8329 40.6232 12.706 40.6232 15.0235C40.6232 17.341 38.7501 19.214 36.4326 19.214H32.2422V15.0235ZM30.1469 15.0235C30.1469 17.341 28.2738 19.214 25.9563 19.214C23.639 19.214 21.766 17.341 21.766 15.0234V4.5157C21.766 2.19804 23.639 0.325073 25.9563 0.325073C28.2736 0.325073 30.1468 2.19804 30.1468 4.51554V15.0234L30.1469 15.0235Z" fill="#2EB67D"/>
<path d="M25.9563 31.8173C28.2738 31.8173 30.1469 33.6903 30.1469 36.0076C30.1469 38.3251 28.2738 40.1983 25.9563 40.1983C23.639 40.1983 21.766 38.3251 21.766 36.0076V31.8173H25.9563ZM25.9563 29.722C23.639 29.722 21.766 27.8489 21.766 25.5314C21.766 23.214 23.639 21.3411 25.9565 21.3411H36.4643C38.7818 21.3411 40.6549 23.214 40.6549 25.5315C40.6549 27.8489 38.7818 29.722 36.4643 29.722H25.9563Z" fill="#ECB22E"/>
</g>
<defs>
<clipPath id="clip0_1_1721">
<rect width="40" height="40" fill="white" transform="translate(0.75 0.325073)"/>
</clipPath>
</defs>
</svg>
