<svg width="20" height="17" viewBox="0 0 20 17" fill="none" xmlns="http://www.w3.org/2000/svg">
<path d="M17.9297 4.4375C17.9297 4.63281 17.9297 4.78906 17.9297 4.98438C17.9297 10.4141 13.8281 16.625 6.28906 16.625C3.94531 16.625 1.79688 15.9609 0 14.7891C0.3125 14.8281 0.625 14.8672 0.976562 14.8672C2.89062 14.8672 4.64844 14.2031 6.05469 13.1094C4.25781 13.0703 2.73438 11.8984 2.22656 10.2578C2.5 10.2969 2.73438 10.3359 3.00781 10.3359C3.35938 10.3359 3.75 10.2578 4.0625 10.1797C2.1875 9.78906 0.78125 8.14844 0.78125 6.15625V6.11719C1.32812 6.42969 1.99219 6.58594 2.65625 6.625C1.52344 5.88281 0.820312 4.63281 0.820312 3.22656C0.820312 2.44531 1.01562 1.74219 1.36719 1.15625C3.39844 3.61719 6.44531 5.25781 9.84375 5.45312C9.76562 5.14062 9.72656 4.82812 9.72656 4.51562C9.72656 2.25 11.5625 0.414062 13.8281 0.414062C15 0.414062 16.0547 0.882812 16.8359 1.70312C17.7344 1.50781 18.6328 1.15625 19.4141 0.6875C19.1016 1.66406 18.4766 2.44531 17.6172 2.95312C18.4375 2.875 19.2578 2.64062 19.9609 2.32812C19.4141 3.14844 18.7109 3.85156 17.9297 4.4375Z" fill="#D3D7F6"/>
</svg>
