<svg width="41" height="41" viewBox="0 0 41 41" fill="none" xmlns="http://www.w3.org/2000/svg">
<g clip-path="url(#clip0_1_1735)">
<path d="M40.73 7.89408C39.2321 8.55766 37.6433 8.99324 36.0165 9.18633C37.7111 8.17083 39.0121 6.56245 39.6249 4.64618C38.014 5.60211 36.2515 6.27564 34.4137 6.63765C32.9166 5.04276 30.7841 4.04602 28.4236 4.04602C23.8914 4.04602 20.2168 7.72044 20.2168 12.2522C20.2168 12.8956 20.2895 13.5218 20.4294 14.1226C13.609 13.7803 7.56223 10.5133 3.51463 5.54819C2.80827 6.76028 2.40362 8.17005 2.40362 9.67377C2.40362 12.5211 3.85246 15.0327 6.05432 16.5045C4.75111 16.4637 3.47657 16.1117 2.33711 15.478C2.33665 15.5122 2.33665 15.5466 2.33665 15.5812C2.33665 19.5573 5.16548 22.8741 8.91959 23.628C7.7111 23.9567 6.44347 24.0048 5.21355 23.7687C6.25773 27.029 9.28858 29.4015 12.8796 29.4679C10.0709 31.6688 6.53231 32.9809 2.68765 32.9809C2.02517 32.9809 1.372 32.942 0.72998 32.8662C4.36176 35.1945 8.67525 36.5532 13.3097 36.5532C28.4046 36.5532 36.6587 24.0483 36.6587 13.204C36.6587 12.848 36.6509 12.4941 36.6349 12.1423C38.2416 10.9809 39.6283 9.54228 40.73 7.89408Z" fill="#55ACEE"/>
</g>
<defs>
<clipPath id="clip0_1_1735">
<rect width="40" height="32.5581" fill="white" transform="translate(0.72998 4.04602)"/>
</clipPath>
</defs>
</svg>
